<?xml version="1.0" standalone="no"?>
<!DOCTYPE svg PUBLIC "-//W3C//DTD SVG 20010904//EN"
 "http://www.w3.org/TR/2001/REC-SVG-20010904/DTD/svg10.dtd">
<svg version="1.0" xmlns="http://www.w3.org/2000/svg"
 width="871.000000pt" height="871.000000pt" viewBox="0 0 871.000000 871.000000"
 preserveAspectRatio="xMidYMid meet">
<metadata>
Created by potrace 1.14, written by Peter Selinger 2001-2017
</metadata>
<g transform="translate(0.000000,871.000000) scale(0.100000,-0.100000)"
fill="#000000" stroke="none">
<path d="M4320 8701 c0 -4 -26 -22 -57 -40 -75 -40 -120 -66 -338 -193 -232
-135 -507 -294 -905 -523 -69 -39 -183 -106 -255 -147 -700 -405 -1358 -785
-1395 -806 -25 -13 -49 -28 -55 -32 -5 -4 -30 -19 -55 -32 -25 -14 -186 -107
-359 -207 -173 -99 -318 -181 -323 -181 -10 0 -4 -4352 5 -4368 4 -5 42 -30
84 -54 124 -71 449 -259 828 -478 193 -112 370 -214 394 -228 77 -43 145 -82
161 -92 8 -5 92 -53 185 -107 94 -53 226 -130 294 -170 67 -40 125 -73 128
-73 3 0 17 -8 31 -19 15 -10 52 -32 82 -48 30 -16 195 -111 365 -210 171 -99
341 -197 378 -219 38 -21 81 -46 95 -55 15 -9 46 -27 69 -40 23 -13 109 -62
190 -109 81 -47 153 -86 160 -88 7 -2 13 -8 13 -13 0 -5 4 -9 9 -9 5 0 71 -36
147 -80 95 -55 145 -78 161 -75 23 4 70 30 373 205 230 134 505 292 547 316
24 14 131 76 239 139 108 63 198 115 200 115 3 0 23 12 47 27 44 28 195 115
218 127 8 3 35 19 60 34 25 15 112 65 193 112 81 47 161 93 179 104 170 98
813 470 843 486 21 12 44 26 49 30 6 4 30 18 55 32 25 14 90 51 145 83 55 32
138 80 185 107 47 27 92 53 100 58 8 6 87 51 175 102 l160 93 -1 2178 c0 1197
-3 2179 -5 2181 -2 2 -92 55 -199 116 -231 133 -620 359 -670 389 -19 11 -41
24 -49 28 -8 4 -76 42 -150 86 -75 43 -154 89 -176 101 -22 13 -174 101 -339
195 -164 95 -319 185 -345 199 -64 37 -382 221 -401 232 -15 10 -82 48 -161
92 -24 14 -111 64 -192 112 -82 47 -151 86 -155 86 -3 0 -13 6 -21 14 -9 7
-41 27 -71 43 -30 17 -95 54 -145 83 -49 29 -110 64 -135 78 -25 14 -62 36
-82 49 -21 12 -39 23 -41 23 -2 0 -80 44 -173 98 -93 54 -191 111 -217 125
-48 27 -77 34 -77 18z"/>
</g>
</svg>
